# xmcd
#
# Track frame offsets:
#	150
#	21825
#	36825
#	52575
#	70725
#	87825
#	101175
#	118725
#	133575
#	146400
#	162900
#	184575
#	199575
#	215325
#	233475
#	250575
#	263925
#	281475
#	296325
#	309150
#
# Disc length: 4345 seconds
#
# Revision: 2
# Processed by: cddbd v1.5.2PL0 Copyright (c) Steve Scherf et al.
# Submitted via: audiograbber 1.83.01
#
DISCID=0f10f714
DTITLE=Country Hits Today  - Cht9912
DYEAR=1999
DGENRE=Karaoke
TTITLE0=Dixie Chicks - Cowboy Take Me Away
TTITLE1=Leann Rimes - Big Deal
TTITLE2=Reba Mcentire - What Do You Say
TTITLE3=Lee Ann Womack - Don't Tell Me
TTITLE4=Chely Wright - It Was
TTITLE5=Shania Twain - Come On Over
TTITLE6=Pam Tillis - After A Kiss
TTITLE7=Lila Mccann - Crush
TTITLE8=Mindy Mccready - All I Want Is Everything
TTITLE9=Lace - I Want A Man
TTITLE10=Dixie Chicks  - Cowboy Take Me Away (Vocals)
TTITLE11=Leann Rimes  - Big Deal (Vocals)
TTITLE12=Reba Mcentire  - What Do You Say (Vocals)
TTITLE13=Lee Ann Womack  - Don't Tell Me (Vocals)
TTITLE14=Chely Wright  - It Was (Vocals)
TTITLE15=Shania Twain  - Come On Over (Vocals)
TTITLE16=Pam Tillis  - After A Kiss (Vocals)
TTITLE17=Lila Mccann - Crush (Vocals)
TTITLE18=Mindy Mccready  - All I Want Is Everything (Vocals)
TTITLE19=Lace  -  I Want A Man (Vocals)
EXTD=fixed 11-20
EXTT0=
EXTT1=
EXTT2=
EXTT3=
EXTT4=
EXTT5=
EXTT6=
EXTT7=
EXTT8=
EXTT9=
EXTT10=
EXTT11=
EXTT12=
EXTT13=
EXTT14=
EXTT15=
EXTT16=
EXTT17=
EXTT18=
EXTT19=
PLAYORDER=
